<svg xmlns="http://www.w3.org/2000/svg" width="516" height="195" viewBox="0 0 516 195" version="1.1">
	<path d="M 79.500 29.686 C 69.756 31.897, 60.689 37.016, 53.500 44.366 C 43.026 55.074, 39.032 65.075, 39.012 80.645 C 38.988 99.211, 47.477 114.737, 62.978 124.475 C 67.854 127.539, 78.466 131.076, 84.750 131.732 L 90 132.280 90 126.304 L 90 120.328 85.750 120.176 C 83.412 120.092, 79.007 119.099, 75.959 117.968 C 48.270 107.696, 40.779 71.446, 62.204 51.406 C 67.968 46.014, 75.548 42.332, 83.917 40.858 L 90 39.786 90 34.393 L 90 29 85.750 29.116 C 83.412 29.180, 80.600 29.436, 79.500 29.686 M 82 49.935 C 73.336 52.580, 65.593 59.162, 61.513 67.350 C 58.487 73.422, 58.082 83.951, 60.592 91.316 C 63.810 100.760, 75.273 109.919, 85.750 111.416 L 90 112.024 90 96.512 L 90 81 104.941 81 C 113.809 81, 120.133 80.594, 120.499 80.001 C 121.482 78.411, 118.285 67.412, 115.607 63.170 C 108.953 52.629, 93.330 46.476, 82 49.935 M 18.348 86.750 C 20.696 111.726, 37.162 135.402, 59.201 145.492 C 66.473 148.821, 79.153 152, 85.160 152 L 90 152 90 146.652 L 90 141.303 81.747 140.148 C 67.347 138.134, 56.883 132.912, 47.032 122.824 C 37.894 113.466, 32.389 102.545, 30.137 89.313 L 28.553 80 23.133 80 L 17.713 80 18.348 86.750 M 231.500 89 C 230.017 93.671, 233.836 97.229, 237.962 95.020 C 240.215 93.815, 240.674 90.074, 238.800 88.200 C 236.820 86.220, 232.223 86.723, 231.500 89 M 298.250 87.651 C 297.292 88.046, 297 94.692, 297 116.083 L 297 144 300 144 L 303 144 303 135.155 C 303 127.557, 303.284 126.053, 305.016 124.486 C 307.369 122.356, 306.316 121.347, 316.250 135.245 C 322.199 143.569, 322.681 143.990, 326.250 143.995 C 330.105 144, 330.944 142.844, 328.750 140.551 C 328.063 139.833, 325.700 136.677, 323.500 133.538 C 321.300 130.399, 318.051 125.888, 316.280 123.514 L 313.059 119.198 320.383 112.242 C 329.883 103.217, 329.996 103, 325.200 103 C 321.752 103, 320.257 103.899, 312.727 110.500 C 308.022 114.625, 303.920 118, 303.612 118 C 303.304 118, 302.928 111.143, 302.776 102.763 C 302.491 87.013, 302.194 86.023, 298.250 87.651 M 467.953 93.250 C 467.740 121.310, 468.001 133.876, 468.843 136.089 C 469.385 137.512, 471.309 139.923, 473.118 141.446 C 475.969 143.845, 477.054 144.153, 481.227 143.752 C 487.006 143.197, 487.503 142.809, 486.011 140.021 C 485.090 138.299, 484.284 137.998, 481.958 138.509 C 479.671 139.011, 478.520 138.611, 476.528 136.619 C 474.129 134.220, 474 133.526, 474 123.045 L 474 112 478.500 112 C 482.633 112, 483 111.796, 483 109.500 C 483 107.204, 482.633 107, 478.500 107 L 474 107 474 97.607 C 474 89.964, 473.705 88.101, 472.418 87.607 C 468.556 86.125, 468.001 86.825, 467.953 93.250 M 138.666 89.673 C 132.061 91.957, 124.802 98.708, 122.035 105.140 C 119.273 111.560, 119.490 122.248, 122.509 128.467 C 125.131 133.870, 131.162 139.686, 136.812 142.260 C 142.616 144.905, 154.529 145.126, 160.249 142.696 L 163.997 141.103 166.749 144.552 C 168.870 147.211, 170.244 148, 172.750 148 C 174.537 148, 176 147.513, 176 146.918 C 176 146.323, 174.400 143.884, 172.445 141.499 L 168.891 137.161 172.353 132.625 C 175.726 128.205, 178 121.135, 178 115.066 C 178 105.790, 170.478 94.869, 161.291 90.805 C 154.938 87.994, 144.964 87.496, 138.666 89.673 M 354.071 89.165 C 349.503 90.477, 342.649 95.282, 339.550 99.346 C 333.159 107.724, 332.209 119.097, 337.085 128.854 C 342.879 140.450, 354.849 146.181, 368.665 143.974 C 376.045 142.795, 380.199 140.989, 384.250 137.199 C 387.529 134.131, 387.718 132.454, 384.952 130.974 C 383.236 130.056, 382.341 130.371, 379.447 132.912 C 368.514 142.511, 349.280 139.310, 342.915 126.832 C 340.372 121.849, 340.127 112.962, 342.385 107.595 C 348.057 94.111, 367.481 89.872, 378.881 99.630 C 382.291 102.549, 383.263 102.930, 384.969 102.016 C 387.999 100.395, 387.461 98.551, 382.794 94.555 C 375.969 88.714, 363.676 86.407, 354.071 89.165 M 142.788 95.143 C 138.179 96.432, 130.792 102.812, 128.626 107.375 C 124.982 115.056, 127.217 126.084, 133.658 132.197 C 139.277 137.530, 149.236 139.557, 156.823 136.912 L 159.945 135.824 154.472 128.965 C 151.463 125.193, 149 121.633, 149 121.053 C 149 120.474, 150.463 120.002, 152.250 120.004 C 155.010 120.007, 156.147 120.846, 159.797 125.571 C 162.160 128.632, 164.635 130.970, 165.297 130.768 C 167.931 129.963, 171 121.709, 171 115.428 C 171 106.891, 167.506 101.622, 158.753 96.959 C 154.137 94.500, 147.706 93.768, 142.788 95.143 M 263.917 101.876 C 244.388 105.990, 240.543 132.925, 258.223 141.755 C 266.693 145.985, 280.074 144.130, 285.855 137.925 C 288.527 135.057, 288.534 134.356, 285.906 132.950 C 284.189 132.031, 283.412 132.204, 281.595 133.910 C 280.377 135.055, 277.250 136.718, 274.648 137.604 C 263.752 141.317, 253 134.039, 253 122.951 C 253 117.143, 255.317 112.897, 260.261 109.643 C 263.927 107.231, 265.274 106.906, 270.224 107.239 C 274.840 107.549, 276.723 108.246, 279.947 110.837 C 283.443 113.646, 284.201 113.891, 285.973 112.785 C 288.585 111.154, 288.532 109.835, 285.750 107.291 C 280.384 102.384, 271.713 100.234, 263.917 101.876 M 411.500 101.891 C 406.935 103.050, 404.663 104.523, 400.730 108.877 C 397.252 112.727, 395.017 118.129, 395.006 122.715 C 394.987 130.043, 401.246 139.842, 407.718 142.619 C 414.387 145.481, 426.025 143.326, 430 138.493 C 431.397 136.795, 431.534 136.938, 432 140.585 C 432.431 143.961, 432.844 144.500, 435 144.500 L 437.500 144.500 437.808 132.500 C 438.145 119.333, 437.185 114.327, 433.345 109.241 C 428.976 103.454, 418.815 100.035, 411.500 101.891 M 186.354 103.520 C 185.042 106.940, 186.697 130.342, 188.553 134.597 C 190.930 140.049, 195.743 143.231, 202.452 143.788 C 212.906 144.655, 220.071 139.793, 221.994 130.527 C 222.585 127.681, 222.941 120.210, 222.784 113.926 L 222.500 102.500 219.500 102.500 L 216.500 102.500 216.488 112 C 216.465 130.179, 216.269 131.500, 213.099 134.894 C 210.675 137.489, 209.448 138, 205.646 138 C 195.089 138, 193.641 135.596, 193 117 L 192.500 102.500 189.744 102.183 C 187.895 101.970, 186.780 102.410, 186.354 103.520 M 455.233 104.576 C 452.304 106.332, 450.115 108.759, 448.251 112.317 C 445.706 117.175, 445.534 118.316, 445.518 130.500 L 445.500 143.500 448.097 143.802 L 450.693 144.103 451.269 131.151 C 451.993 114.878, 453.693 111.041, 461.306 108.501 C 465.177 107.210, 467.107 104.330, 465 102.987 C 462.538 101.417, 459.746 101.872, 455.233 104.576 M 233.009 103.750 C 233.013 104.162, 232.901 113.179, 232.759 123.786 C 232.545 139.732, 232.750 143.228, 233.946 143.967 C 234.810 144.500, 236.119 144.472, 237.196 143.895 C 238.842 143.014, 239 141.183, 239 122.965 L 239 103 236 103 C 234.350 103, 233.004 103.338, 233.009 103.750 M 410.267 108.578 C 402.373 112.031, 399.139 123.635, 403.916 131.364 C 406.758 135.963, 410.595 138, 416.416 138 C 420.008 138, 421.630 137.386, 424.354 134.994 C 433.449 127.009, 432.993 114.768, 423.396 109.266 C 418.976 106.732, 414.966 106.522, 410.267 108.578" stroke="none" fill="#272E3F" fill-rule="evenodd"/>
</svg>